PathFileType	4	(X/Y/Z)	C:\Users\WrightLab\Desktop\Jo\P1_boxCal27.trc
DataRate	CameraRate	NumFrames	NumMarkers	Units	OrigDataRate	OrigDataStartFrame	OrigNumFrames
100.00	100.00	       19	19	mm	100.00	59	       465
Frame#	Time	Headset_Front			Headset_Back			Headset_Left			Headset_Right			Left_Shoulder			Right_Shoulder			Sternum			C7			Left Elbow			Right Elbow			Left Wrist			Right Wrist			Left ASIS			Right ASIS			S2			Left Knee			Right Knee			Left Ankle			Right Ankle			
		X1	Y1	Z1	X2	Y2	Z2	X3	Y3	Z3	X4	Y4	Z4	X5	Y5	Z5	X6	Y6	Z6	X7	Y7	Z7	X8	Y8	Z8	X9	Y9	Z9	X10	Y10	Z10	X11	Y11	Z11	X12	Y12	Z12	X13	Y13	Z13	X14	Y14	Z14	X15	Y15	Z15	X16	Y16	Z16	X17	Y17	Z17	X18	Y18	Z18	X19	Y19	Z19	

59	0.580	-772.94617	1450.14661	-383.91541	-649.11444	1486.57373	-566.84167	-552.97650	1440.28137	-435.50128	-677.56946	1425.03442	-267.21912	-477.75293	1270.93750	-460.39493	-854.27405	1248.84204	-512.35333	-702.64716	1163.65466	-358.68625	-639.34857	1259.14221	-593.95819	-382.28271	955.20709	-469.61755	-916.12726	975.21576	-575.46216	-338.11267	777.19092	-335.53915	-989.96021	748.85022	-508.35471	-604.22424	889.28955	-291.81302	-789.91443	877.95190	-372.44901	-578.90967	882.30402	-631.12030	-526.12018	435.73047	-389.05469	-898.74048	475.33557	-422.39566	-579.73688	67.92000	-452.26031	-364.01212	146.06157	-0.23177	
60	0.590	-699.10333	1409.59509	-335.54684	-651.49695	1487.38416	-558.06311	-555.42285	1441.29871	-426.87411				-479.54364	1271.97424	-452.42371	-855.85120	1249.45801	-503.27335	-705.35059	1165.40845	-347.44339	-641.60919	1260.28113	-585.36261	-383.78674	956.09509	-458.78500	-916.71765	975.91321	-568.44684	-339.21552	779.91479	-323.61993	-990.28009	749.15375	-498.73154	-603.92688	889.46027	-285.95184	-790.73071	879.14807	-361.60928	-582.66144	883.09991	-623.38788	-525.21411	435.61823	-387.61740	-899.47174	478.99771	-405.20050	-579.84839	68.25188	-452.91849	-725.82489	158.69502	-627.57416	
61	0.600	-681.94293	1424.72522	-254.64066	-653.96759	1488.05994	-549.69940	-557.47156	1441.74585	-418.72192	-776.14502	1450.47278	-364.89066	-481.00058	1272.73315	-443.69470	-857.69592	1250.33459	-494.40137	-705.60345	1165.52478	-341.46411	-643.65576	1260.84399	-575.71429	-385.06308	957.60663	-448.59293	-918.19257	977.40302	-561.74988	-341.00763	780.97870	-311.69177	-992.95172	750.39960	-490.38977	-604.56049	891.00433	-279.04453	-791.99420	881.09271	-352.06750	-586.39911	883.41077	-614.84564	-524.53064	435.15228	-386.14362	-899.78918	482.92459	-389.08081	-579.94788	67.91788	-452.63712	-362.69711	144.24078	-0.13488	
62	0.610	-682.96429	1425.11121	-247.56310	-656.28766	1488.15442	-540.32654	-559.19635	1443.25281	-410.35294	-778.23615	1450.63037	-355.91714	-483.14557	1273.42749	-435.29938	-859.12823	1250.26648	-484.18848	-706.51190	1165.73694	-332.28033	-645.87988	1261.56885	-567.56268	-386.26590	958.00897	-438.38864	-919.04791	978.21362	-554.24957	-341.96753	783.20477	-301.31549	-993.67743	750.76617	-480.85553	-605.26239	890.87158	-273.70850	-791.58972	881.20581	-342.14865	-589.81671	884.37659	-608.90698	-523.83002	433.95706	-383.63040	-899.18976	485.47385	-372.87091	-579.96729	67.93741	-452.61703	-749.00226	137.16743	-576.32153	
63	0.620	-684.41986	1426.58740	-237.21655	-658.61072	1488.55652	-531.58667	-560.84961	1443.38269	-400.70435	-780.16931	1450.87744	-346.37112	-484.09070	1273.48877	-426.65350	-860.30646	1251.07483	-475.38031	-706.44122	1167.02283	-321.13089	-647.57874	1261.72778	-558.19598	-387.16061	958.43384	-429.53699	-920.67938	978.68738	-545.27545	-343.68634	783.60797	-290.07162	-995.16864	751.65698	-471.79330	-604.34076	891.27155	-264.99112	-792.50757	882.16504	-331.91272	-594.98279	883.91010	-599.72107	-523.96356	433.34195	-382.59399	-898.88599	488.39011	-358.20590	-580.01917	68.47272	-453.02609	-761.49567	125.49722	-550.12769	
64	0.630	-685.82941	1425.88062	-227.92987	-660.76184	1488.80701	-522.80957	-563.43976	1444.00659	-392.53595	-781.20532	1450.84961	-337.10687	-485.70972	1273.97253	-418.72247	-862.54138	1251.01221	-466.83707				-649.23718	1262.17737	-549.11945	-388.62057	958.57709	-419.22791	-921.72217	978.97980	-536.26752	-345.26300	785.34900	-278.23853	-995.97906	751.28149	-462.60159	-603.78308	892.05609	-258.08704	-793.08972	882.27051	-321.56946	-599.63306	884.18292	-592.25439	-525.33594	432.72116	-379.21921	-898.23938	490.59250	-342.89597	-580.04016	68.54905	-452.96335	-364.01212	146.06157	-0.23177	
65	0.640	-686.85211	1427.19751	-220.49872	-662.54718	1488.06335	-513.86334	-564.35785	1444.81982	-383.99866	-783.06293	1450.86841	-327.97202	-487.24139	1273.40259	-409.37039	-863.73743	1251.58472	-455.80392	-709.10022	1166.04163	-303.87140	-651.13727	1262.59583	-540.82562	-389.54498	958.39856	-409.48495	-923.50018	979.86176	-527.37421	-346.12973	786.14734	-268.45865	-997.40515	751.44891	-453.04871	-604.14618	891.66809	-251.87917	-794.49805	883.44720	-312.43686	-603.04382	884.08234	-585.30841	-524.98199	433.07095	-375.21140	-897.59686	491.36096	-328.09171	-580.24969	68.76280	-452.81857	-380.03549	136.77846	9.56842	
66	0.650	-687.19763	1429.22974	-203.90036	-664.52173	1487.66455	-504.27982	-566.50983	1444.48279	-374.56180	-785.25690	1451.10205	-318.92929	-488.47916	1273.12366	-400.63666	-864.78076	1250.74292	-445.31339	-709.78259	1166.46960	-295.08722	-653.05670	1262.50037	-531.05554	-390.57791	958.59088	-400.40057	-925.57898	979.84760	-517.81110	-348.22623	786.32397	-258.51163	-999.23260	751.96515	-444.82877	-603.61389	891.78442	-245.72815	-794.24677	882.70483	-301.84125	-607.06433	883.96704	-577.32861	-525.20782	432.65610	-372.08768	-897.08276	492.76062	-313.81265	-580.47583	69.34138	-453.18851	-379.79459	137.14847	9.34142	
67	0.660	-688.68829	1429.66833	-195.10478	-666.75226	1488.04712	-495.76782	-568.14716	1444.91663	-365.93927	-786.41180	1450.42700	-309.50034	-490.02249	1272.74451	-392.71838	-866.39105	1250.77869	-434.85852	-710.82672	1165.98218	-283.59976	-654.75446	1262.22266	-521.11420	-391.68442	958.54291	-392.40176	-926.97772	979.82483	-507.56534	-348.66556	787.31525	-247.45343	-1001.31671	752.40698	-435.79407	-603.19141	891.97882	-237.10464	-794.81409	882.47913	-291.48788	-612.59637	883.75397	-568.46924	-526.77222	431.04608	-369.49802	-895.87311	492.89792	-299.25992	-580.79370	69.54361	-453.15576	-379.58163	137.65851	9.07764	
68	0.670	-689.14722	1429.14282	-185.26346	-668.53253	1487.59375	-486.66058	-569.33234	1444.59351	-356.40198	-787.55463	1449.57788	-299.61542	-491.11252	1272.02197	-383.66080	-867.94873	1250.76831	-424.77432				-656.87347	1262.25427	-512.79254	-392.48001	957.62152	-381.66675	-928.78387	979.49500	-496.19504	-350.47388	786.92004	-237.05629	-1002.58423	751.47290	-425.75085	-602.66913	891.48151	-227.91626	-795.51898	881.25513	-280.84616	-617.18091	883.29773	-559.98767	-528.33051	430.37711	-365.21362	-895.25092	492.73840	-285.27014	-580.76691	69.40399	-452.95251	-380.19879	137.00786	9.55641	
69	0.680	-691.35498	1429.19800	-176.20969	-669.91327	1486.36804	-477.32593	-570.66309	1444.43005	-346.58261	-789.35577	1449.61035	-290.62344	-492.78922	1271.55054	-375.34021	-869.62488	1249.97205	-414.50943				-658.67291	1261.79602	-503.49780	-394.57544	956.71295	-372.27432	-931.02783	979.15082	-485.71231	-351.38367	786.91559	-227.14845	-1004.14838	751.36664	-416.40546	-603.06921	889.29114	-221.54242	-796.87372	880.88611	-270.84396	-621.51831	882.56592	-552.36603	-529.29584	430.57712	-362.01352	-894.37384	492.49799	-273.06406	-581.00793	70.25576	-453.34879	-379.58163	137.65851	9.07764	
70	0.690	-691.92700	1428.44543	-166.47517	-671.73944	1485.67700	-467.94849	-572.57013	1443.44397	-338.81882	-790.52203	1448.48779	-281.07242	-493.74225	1270.53699	-366.34183	-870.78632	1249.52612	-404.26974	-713.54736	1164.09802	-254.53781	-660.84442	1261.54919	-494.14365	-395.03589	956.20386	-363.33035	-933.42041	978.83362	-475.17493	-352.80957	786.44092	-217.92313	-1006.40485	751.23962	-407.75122	-603.85614	888.68976	-214.44884	-797.05334	879.16687	-260.32306	-625.21057	883.31940	-545.93396	-530.87994	429.66605	-359.02414	-892.61517	491.03070	-260.78003	-581.20276	70.40379	-453.30728	-380.03549	136.77846	9.56842	
71	0.700	-692.65442	1428.13196	-157.01407	-673.40729	1484.76917	-458.38803	-573.55890	1443.41113	-329.94794	-791.57300	1447.86707	-271.34717	-495.56491	1269.23450	-357.24747	-872.54413	1248.89368	-393.75027	-714.33228	1162.81360	-245.97984	-662.68463	1260.84265	-484.47919	-396.29355	954.93921	-355.21216	-936.10577	979.05981	-465.84241	-354.35138	785.53699	-208.58278	-1008.39471	750.88489	-398.49158	-603.51868	887.31097	-206.21724	-797.60046	877.85699	-249.81062	-630.89636	882.13965	-535.93781	-531.62598	429.26556	-354.72623	-891.43750	489.95483	-249.46629	-581.69208	70.90940	-453.02005	-379.58163	137.65851	9.07764	
72	0.710	-694.18787	1427.69739	-147.79337	-675.50122	1483.60120	-449.40552	-575.49402	1442.06799	-319.76590	-793.11340	1447.30481	-262.11935	-496.24625	1268.56873	-350.00366	-874.20233	1247.94324	-383.25751	-714.94336	1161.20459	-234.80545	-665.08649	1260.28638	-475.19705	-398.17072	953.50928	-346.59869	-937.94000	978.54425	-454.67850	-355.54990	784.80109	-199.37296	-1010.20020	750.15509	-388.86917	-604.15631	886.03046	-197.73979	-799.43610	876.98132	-239.50134	-635.34729	881.52228	-527.51251	-535.06830	428.03958	-350.90359	-890.08698	487.85120	-238.52077	-582.06897	71.49768	-452.91010	-380.30191	137.86261	9.30410	
73	0.720	-694.17749	1426.57068	-137.73456	-677.10046	1482.48047	-440.19101	-576.35266	1440.85974	-311.30161	-794.20526	1446.04797	-251.34459	-498.26318	1266.69470	-340.62827	-875.58936	1246.60522	-371.87143	-715.81616	1162.10913	-222.42987	-666.97839	1259.28076	-465.77405	-399.32190	952.10638	-337.14429	-939.72028	977.15607	-443.89542	-356.71649	783.40015	-191.29051	-1013.04419	749.80554	-379.20532	-604.89111	884.15240	-188.90555	-799.74829	874.79376	-228.20341	-639.69305	880.26379	-517.93195	-535.39178	427.94897	-347.02795	-889.01184	485.61014	-227.71268	-582.02838	72.05405	-453.22217				
74	0.730	-697.39777	1423.28369	-133.16595	-678.73059	1480.98047	-430.76584	-577.82178	1440.32813	-301.78595	-795.75781	1445.28345	-242.94646	-499.23270	1265.13367	-332.75842	-877.24884	1245.84082	-360.86115	-716.47644	1157.97266	-216.03694	-669.45673	1258.13647	-455.73282	-401.14551	950.30499	-328.81146	-942.62170	977.10736	-435.12573	-358.39233	782.33624	-182.55060	-1015.04803	749.27466	-370.22452	-605.01593	883.21265	-179.43796	-801.53601	873.44202	-217.40674	-644.38940	879.43518	-509.55154	-537.41211	426.72522	-341.83163	-888.49951	483.89429	-217.84444	-582.33893	72.34493	-452.75525				
75	0.740	-696.52704	1424.89246	-118.50649	-680.32483	1479.75549	-421.02850	-579.40314	1438.20569	-292.85327	-799.02045	1444.32031	-234.14943	-501.21164	1263.96692	-323.74661	-879.20135	1244.70032	-349.99139	-717.02185	1156.91394	-209.10168	-671.56512	1256.89404	-446.37115	-402.60962	948.99615	-321.39127	-944.32159	975.66919	-424.86349	-359.07553	780.41534	-174.09399	-1017.09155	748.37134	-360.72269	-605.85693	880.53210	-172.58788	-801.91290	871.57745	-205.79062	-649.06781	878.97876	-500.59406	-538.48993	425.83936	-338.08728	-888.16644	482.21924	-207.26443	-582.42609	72.61965	-452.60767				
76	0.750	-698.57068	1419.94775	-115.83688	-682.25366	1478.58704	-411.10855	-580.47778	1436.92590	-283.85645	-798.26953	1442.89734	-222.64772	-502.12613	1262.36475	-315.68671	-881.05347	1243.73022	-339.53525	-716.46753	1156.50745	-197.40573	-674.22070	1255.76147	-437.10422	-405.18683	946.32025	-312.70218	-946.53058	974.84125	-414.25937	-360.82977	778.76422	-166.50226	-1019.97693	747.57574	-352.13895	-606.54553	878.57300	-164.84076	-803.26569	870.21222	-194.57123	-653.51440	877.40753	-491.73560	-541.19135	424.58295	-333.55011	-888.73541	480.90857	-196.66280	-582.41431	73.13918	-452.41119				
77	0.760	-699.27502	1418.78467	-104.72804	-684.19397	1476.54724	-400.97794	-582.23053	1435.20117	-273.26657	-799.14423	1441.35693	-212.36313	-503.67212	1260.63672	-307.57642	-882.39954	1242.19580	-327.78702	-716.67505	1155.27271	-187.16327	-676.46869	1254.21399	-427.26730	-406.73663	944.40686	-304.52039	-948.72296	973.53186	-403.07059	-361.83298	776.31665	-158.91679	-1022.06128	746.38245	-342.16232	-607.00305	876.99530	-155.49548	-805.39063	869.23785	-183.52007	-658.30719	876.13220	-482.47650	-542.62317	423.88266	-328.95908	-890.68921	479.50797	-186.13342	-582.55768	74.14500	-452.67896				
